<svg version="1.1" x="0px" y="0px" width="500px" height="100px" viewBox="0 0 500 100" xmlns="http://www.w3.org/2000/svg">
    <path fill="#c0c0c0" d="M 0 8.428 C 17.158 3.551 34.314 3.551 51.47 8.428 C 68.625 13.305 85.783 13.305 102.939 8.428 L 102.939 78.859 C 85.783 83.736 68.625 83.736 51.47 78.859 C 34.314 73.983 17.158 73.983 0 78.859 L 0 8.428 Z" style=""/>
    <path fill="#0057b8" d="M 2.709 11.137 C 18.963 6.26 35.217 6.26 51.47 11.137 C 67.723 16.013 83.976 16.013 100.23 11.137 L 100.23 43.644 L 75.851 57.188 L 27.088 57.188 L 2.709 43.644 L 2.709 11.137 Z" style=""/>
    <path fill="#ffd500" d="M 2.709 43.644 C 18.963 38.769 35.217 38.769 51.47 43.644 C 67.723 48.519 83.976 48.519 100.23 43.644 L 100.23 76.15 C 83.976 81.027 67.723 81.027 51.47 76.15 C 35.217 71.274 18.963 71.274 2.709 76.15 L 2.709 43.644 Z" style=""/>
    <path d="M 134.305 25.861 L 121.991 25.861 L 121.991 69.237 C 121.991 74.798 120.084 76.943 117.385 76.943 C 115.159 76.943 113.174 76.547 111.426 76.07 L 110.154 84.492 C 112.619 85.206 115.637 85.683 119.53 85.683 C 129.699 85.683 134.227 79.645 134.227 69.635 L 134.227 25.861 L 134.305 25.861 Z M 121.991 19.186 L 134.387 19.186 L 134.387 8.619 L 121.991 8.619 L 121.991 19.186 Z" style=""/>
    <path d="M 150.672 40.556 C 150.592 39.842 150.514 39.128 150.514 38.571 C 150.514 34.997 152.976 33.328 158.141 33.328 C 163.306 33.328 165.61 35.87 165.61 39.604 L 165.61 42.94 C 144.635 43.34 137.643 48.501 137.643 57.321 C 137.643 64.947 143.047 68.601 151.227 68.601 C 160.287 68.601 165.449 63.676 166.88 61.928 L 167.356 61.928 C 167.515 65.108 168.865 68.601 175.141 68.601 C 177.605 68.601 180.306 68.125 182.135 67.489 L 181.656 59.307 C 180.941 59.546 180.228 59.625 179.512 59.625 C 178.32 59.625 177.605 58.91 177.605 57.242 L 177.605 40.16 C 177.605 32.295 173.555 24.904 158.696 24.904 C 145.429 24.904 139.392 30.07 139.392 38.095 C 139.392 39.048 139.471 40.24 139.63 41.192 L 150.672 40.556 Z M 149.481 55.731 C 149.481 52.156 152.976 49.616 165.529 49.297 L 165.529 55.414 C 163.145 58.116 159.094 60.02 155.2 60.02 C 151.546 60.101 149.481 58.829 149.481 55.731 Z" style=""/>
    <path d="M 181.974 46.832 C 181.974 60.577 189.364 68.522 204.06 68.522 C 221.62 68.522 223.367 58.116 223.367 53.905 C 223.367 53.27 223.367 52.552 223.206 51.68 L 210.973 51.522 C 211.13 51.998 211.13 52.552 211.13 52.871 C 211.13 55.414 209.782 59.704 203.663 59.704 C 197.545 59.704 194.526 55.175 194.526 46.756 C 194.526 36.902 197.944 33.645 203.663 33.645 C 209.702 33.645 211.13 38.016 211.13 40.477 C 211.13 40.874 211.13 41.431 210.973 41.907 L 223.206 41.67 C 223.367 40.717 223.367 40.16 223.367 39.444 C 223.367 34.916 221.539 24.828 204.06 24.828 C 188.649 24.985 181.974 34.997 181.974 46.832 Z" style=""/>
    <path d="M 226.942 67.728 L 239.256 67.728 L 239.256 54.777 C 240.766 53.825 244.182 51.522 245.851 50.25 C 247.758 52.317 255.542 66.14 257.291 67.728 L 270.558 67.728 L 270.558 66.299 C 268.255 64.392 257.21 46.276 254.986 43.655 C 259.118 40.16 265.315 33.882 269.686 27.29 L 269.686 25.861 L 256.258 25.861 C 252.126 32.454 245.136 39.048 239.256 43.021 L 239.256 6.158 L 226.942 6.158 L 226.942 67.728 Z" style=""/>
    <path d="M 272.384 67.728 L 281.603 67.728 L 283.429 63.12 L 283.906 63.12 C 285.892 65.267 289.546 68.601 297.014 68.601 C 306.388 68.601 314.889 62.486 314.889 46.676 C 314.889 30.785 306.151 24.985 297.014 24.985 C 291.214 24.985 287.241 27.369 285.177 29.753 L 284.699 29.753 L 284.699 6.158 L 272.384 6.158 L 272.384 67.728 Z M 284.699 37.459 C 286.607 35.315 289.546 33.806 292.486 33.806 C 297.968 33.806 302.336 36.666 302.336 46.756 C 302.336 56.765 298.207 59.863 292.486 59.863 C 288.988 59.863 286.21 58.274 284.699 56.288 L 284.699 37.459 Z" style=""/>
    <path d="M 316.161 46.832 C 316.161 60.02 323.313 68.522 338.247 68.522 C 352.943 68.522 360.333 59.943 360.333 46.832 C 360.333 33.566 352.943 24.904 338.247 24.904 C 323.313 24.985 316.161 33.566 316.161 46.832 Z M 338.167 59.784 C 332.29 59.784 328.554 56.446 328.554 46.832 C 328.554 37.061 332.21 33.724 338.167 33.724 C 343.889 33.724 347.621 37.061 347.621 46.832 C 347.702 56.446 343.966 59.784 338.167 59.784 Z" style=""/>
    <path d="M 358.903 67.728 L 372.012 67.728 L 377.654 59.226 C 379.161 56.844 380.196 55.175 381.465 52.632 L 382.1 52.632 C 383.453 55.095 384.087 56.366 385.834 59.068 L 391.635 67.728 L 404.745 67.728 L 404.745 66.537 L 389.729 46.276 L 404.505 27.13 L 404.505 25.861 L 391.397 25.861 L 386.155 33.486 C 384.564 35.87 383.453 37.618 382.022 40.24 L 381.386 40.24 C 380.113 37.618 378.845 35.553 377.336 33.406 L 372.171 25.861 L 359.062 25.861 L 359.062 27.13 L 373.681 46.596 L 358.903 66.537 L 358.903 67.728 Z" style=""/>
    <rect x="406.73" y="54.54" width="14.22" height="13.188" style=""/>
    <path d="M 429.451 55.095 C 429.451 64.392 433.662 68.601 443.356 68.601 C 447.884 68.601 452.81 67.809 456.304 66.616 L 455.511 56.844 C 452.571 58.116 449.632 58.989 447.168 58.989 C 443.117 58.989 441.765 57.242 441.765 53.426 L 441.765 33.406 L 455.987 33.406 L 455.987 25.78 L 441.765 25.78 L 441.765 16.326 L 431.835 16.326 L 430.326 25.78 L 421.746 25.78 L 421.746 33.406 L 429.451 33.406 L 429.451 55.095 Z" style=""/>
    <path d="M 470.446 67.728 L 483.874 67.728 L 500 26.653 L 500 25.78 L 487.607 25.78 L 480.061 48.105 C 478.947 51.361 478.073 55.175 477.598 58.116 L 476.722 58.116 C 476.246 55.175 475.294 51.202 474.26 48.025 L 466.712 25.78 L 454.317 25.78 L 454.317 26.653 L 470.446 67.728 Z" style=""/>
</svg>